<svg xmlns="http://www.w3.org/2000/svg" version="1.1" xmlns:xlink="http://www.w3.org/1999/xlink" xmlns:svgjs="http://svgjs.dev/svgjs" width="1500" height="1500" viewBox="0 0 1500 1500"><rect width="1500" height="1500" fill="#ffffff"></rect><g transform="matrix(0.6666666666666666,0,0,0.6666666666666666,249.39393939393938,435.9903225806451)"><svg viewBox="0 0 396 248" data-background-color="#ffffff" preserveAspectRatio="xMidYMid meet" height="939" width="1500" xmlns="http://www.w3.org/2000/svg" xmlns:xlink="http://www.w3.org/1999/xlink"><g id="tight-bounds" transform="matrix(1,0,0,1,0.2400000000000091,0.4000000000000057)"><svg viewBox="0 0 395.52 247.2" height="247.2" width="395.52"><g><svg></svg></g><g><svg viewBox="0 0 395.52 247.2" height="247.2" width="395.52"><g transform="matrix(1,0,0,1,112.7438377102065,47.215199999999996)"><svg viewBox="0 0 170.03232457958697 152.7696" height="152.7696" width="170.03232457958697"><g><svg viewBox="0 0 170.03232457958697 152.7696" height="152.7696" width="170.03232457958697"><g><svg viewBox="0 0 230.77473548544 207.3450687531741" height="152.7696" width="170.03232457958697"><g><svg viewBox="0 0 230.77473548544 207.3450687531741" height="207.3450687531741" width="230.77473548544"><g id="textblocktransform"><svg viewBox="0 0 230.77473548544 207.3450687531741" height="207.3450687531741" width="230.77473548544" id="textblock"><g><svg viewBox="0 0 230.77473548544 151.825483872" height="151.825483872" width="230.77473548544"><g transform="matrix(1,0,0,1,0,0)"><svg width="230.77473548544" viewBox="4.38 -31.25 47.489999999999995 31.25" height="151.825483872" data-palette-color="#556970"><path d="M8.33 0L4.38 0 4.38-31.25 12.12-31.25Q15.21-31.25 17.34-30.31 19.48-29.38 20.8-27.86 22.12-26.35 22.73-24.58 23.33-22.81 23.33-21.11L23.33-21.11Q23.33-19.44 22.74-17.67 22.15-15.9 20.83-14.38 19.51-12.85 17.36-11.91 15.21-10.97 12.12-10.97L12.12-10.97 8.33-10.97 8.33 0ZM8.33-27.71L8.33-14.51 11.91-14.51Q14.72-14.51 16.35-15.5 17.99-16.49 18.68-18 19.38-19.51 19.38-21.11L19.38-21.11Q19.38-22.64 18.7-24.17 18.02-25.69 16.41-26.7 14.79-27.71 11.91-27.71L11.91-27.71 8.33-27.71ZM51.87 0L47.05 0 33.75-19.27 44.44-31.25 49.09-31.25 38.47-19.31 51.87 0ZM33.33 0L29.37 0 29.37-31.25 33.33-31.25 33.33 0Z" opacity="1" transform="matrix(1,0,0,1,0,0)" fill="#000000" class="wordmark-text-0" data-fill-palette-color="primary" id="text-0"></path></svg></g></svg></g><g transform="matrix(1,0,0,1,0,187.66783680256628)"><svg viewBox="0 0 230.77473548544 19.677231950607826" height="19.677231950607826" width="230.77473548544"><g transform="matrix(1,0,0,1,0,0)"><svg width="230.77473548544" viewBox="1.25 -36.84 566.3 48.290000000000006" height="19.677231950607826" data-palette-color="#556970"><path d="M27-23.46L27-23.46Q27-19.8 25.27-17.38 23.54-14.97 20.61-13.76 17.68-12.55 14.09-12.55L14.09-12.55 13.94-12.55Q12.96-12.55 11.78-12.63 10.6-12.72 10.4-12.74L10.4-12.74 10.4-3.44Q10.4-3.08 10.66-2.73 10.91-2.39 11.45-2.34L11.45-2.34 14.75-2.15 14.75 0 1.61 0 1.61-2.15 4.25-2.34Q4.79-2.39 5.07-2.73 5.35-3.08 5.35-3.44L5.35-3.44 5.35-30.1Q5.35-30.47 5.07-30.82 4.79-31.18 4.25-31.2L4.25-31.2 1.25-31.4 1.25-33.54 13.21-33.54Q20.29-33.54 23.65-31.27 27-29 27-23.46ZM21.8-23.39L21.8-23.39Q21.8-27.03 19.76-29.06 17.72-31.1 12.94-31.1L12.94-31.1Q12.26-31.1 11.33-31.08 10.4-31.05 10.4-31.05L10.4-31.05 10.4-15.31Q10.52-15.31 11.51-15.17 12.5-15.04 13.21-15.04L13.21-15.04 13.35-15.04Q17.24-15.04 19.52-17.07 21.8-19.09 21.8-23.39ZM53.56-1.95L53.56 0 46.16 0 45.51-2.95Q45.51-2.95 44.76-2.42 44.02-1.88 42.8-1.17 41.57-0.46 40.1 0.07 38.62 0.61 37.16 0.61L37.16 0.61Q34.45 0.61 32.55-1.2 30.66-3 30.66-6.15L30.66-6.15Q30.66-7.54 31.16-8.74 31.66-9.94 33.16-11.02 34.67-12.11 37.63-13.15 40.6-14.18 45.51-15.26L45.51-15.26 45.51-17.41Q45.51-22.34 40.84-22.34L40.84-22.34Q39.55-22.34 38.61-22.09 37.67-21.85 37.3-21.7L37.3-21.7 37.3-17.36 33.66-17.36Q32.98-17.36 32.39-17.61 31.81-17.87 31.81-18.8L31.81-18.8Q31.81-20.85 33.37-22.16 34.93-23.46 37.34-24.08 39.74-24.71 42.21-24.71L42.21-24.71Q45.31-24.71 47.02-23.74 48.73-22.78 49.41-21.08 50.1-19.38 50.1-17.21L50.1-17.21 50.1-3.2Q50.1-2.73 50.4-2.44 50.71-2.15 51.14-2.1L51.14-2.1 53.56-1.95ZM45.51-4.71L45.51-4.71 45.51-13.35Q42.14-12.52 40.15-11.68 38.16-10.84 37.18-10 36.2-9.16 35.9-8.29 35.59-7.42 35.59-6.49L35.59-6.49Q35.59-4.96 36.58-3.65 37.57-2.34 39.35-2.34L39.35-2.34Q40.35-2.34 41.43-2.7 42.5-3.05 43.43-3.53 44.36-4 44.93-4.36 45.51-4.71 45.51-4.71ZM81.73-1.95L81.73 0 70.7 0 70.7-1.95 72.8-2.1Q73.24-2.15 73.54-2.44 73.85-2.73 73.85-3.2L73.85-3.2 73.85-16.21Q73.85-18.58 72.75-19.81 71.65-21.04 69.04-21.04L69.04-21.04Q67.62-21.04 66.22-20.64 64.81-20.24 63.54-19.6L63.54-19.6 63.54-3.2Q63.54-2.17 64.59-2.1L64.59-2.1 66.69-1.95 66.69 0 55.39 0 55.39-1.95 57.83-2.1Q58.88-2.17 58.88-3.2L58.88-3.2 58.88-20.56 55.39-20.56 55.39-22.19 61.49-24.1 63.54-24.1 63.54-21.61Q65.64-22.8 67.85-23.75 70.06-24.71 71.8-24.71L71.8-24.71Q75.07-24.71 76.78-22.67 78.49-20.63 78.49-16.99L78.49-16.99 78.49-3.2Q78.49-2.73 78.79-2.44 79.1-2.15 79.54-2.1L79.54-2.1 81.73-1.95ZM104.34-4.71L104.34-4.71 104.34-1.86Q102.65-0.95 100.54-0.17 98.43 0.61 95.89 0.61L95.89 0.61Q92.4 0.61 89.82-1.03 87.25-2.66 85.84-5.48 84.44-8.3 84.44-11.89L84.44-11.89Q84.44-16.09 86.11-18.95 87.79-21.8 90.53-23.25 93.28-24.71 96.48-24.71L96.48-24.71Q99.77-24.71 102.01-23.43 104.24-22.14 104.24-19.7L104.24-19.7Q104.24-18.24 103.33-17.49 102.41-16.75 101.29-16.75L101.29-16.75Q100.46-16.75 99.85-17.03 99.24-17.31 98.77-17.6L98.77-17.6 98.77-21.95Q97.62-22.61 96.67-22.61L96.67-22.61Q94.45-22.61 92.85-21.3 91.25-20 90.4-17.72 89.54-15.45 89.54-12.55L89.54-12.55Q89.54-9.79 90.47-7.51 91.4-5.22 93.24-3.88 95.09-2.54 97.82-2.54L97.82-2.54Q99.55-2.54 101.14-3.1 102.73-3.66 104.34-4.71ZM133.56-1.95L133.56 0 122.43 0 122.43-1.95 124.48-2.1Q124.92-2.15 125.25-2.44 125.58-2.73 125.58-3.2L125.58-3.2 125.58-16.09Q125.58-18.24 124.55-19.64 123.53-21.04 120.62-21.04L120.62-21.04Q119.3-21.04 117.78-20.63 116.25-20.21 115.18-19.6L115.18-19.6 115.18-3.2Q115.18-2.17 116.18-2.1L116.18-2.1 118.32-1.95 118.32 0 107.07 0 107.07-1.95 109.46-2.1Q110.51-2.17 110.51-3.2L110.51-3.2 110.51-33.25 106.78-33.25 106.78-34.91 113.17-36.84 115.18-36.84 115.18-21.61Q116.08-22.17 117.52-22.89 118.96-23.61 120.55-24.16 122.13-24.71 123.43-24.71L123.43-24.71Q126.31-24.71 128.26-22.85 130.21-21 130.21-17.14L130.21-17.14 130.21-3.2Q130.21-2.73 130.54-2.44 130.87-2.15 131.31-2.1L131.31-2.1 133.56-1.95ZM160.93-1.95L160.93 0 152.92 0 152.92-1.95 146.67-11.35 143.88-11.35 143.88-3.2Q143.88-2.17 144.93-2.1L144.93-2.1 147.08-1.95 147.08 0 135.73 0 135.73-1.95 138.17-2.1Q139.22-2.17 139.22-3.2L139.22-3.2 139.22-33.25 135.44-33.25 135.44-34.91 141.83-36.84 143.88-36.84 143.88-12.79 144.88-12.79 152.23-21.09Q152.33-21.22 152.33-21.41L152.33-21.41Q152.33-21.9 151.82-21.95L151.82-21.95 149.77-22.14 149.77-24.1 159.48-24.1 159.48-22.14 156.29-21.8 149.67-14.75 158.29-2.25 160.93-1.95ZM186.04-1.95L186.04 0 178.65 0 177.99-2.95Q177.99-2.95 177.24-2.42 176.5-1.88 175.28-1.17 174.06-0.46 172.58 0.07 171.1 0.61 169.64 0.61L169.64 0.61Q166.93 0.61 165.04-1.2 163.14-3 163.14-6.15L163.14-6.15Q163.14-7.54 163.64-8.74 164.15-9.94 165.65-11.02 167.15-12.11 170.11-13.15 173.08-14.18 177.99-15.26L177.99-15.26 177.99-17.41Q177.99-22.34 173.32-22.34L173.32-22.34Q172.03-22.34 171.09-22.09 170.15-21.85 169.78-21.7L169.78-21.7 169.78-17.36 166.15-17.36Q165.46-17.36 164.88-17.61 164.29-17.87 164.29-18.8L164.29-18.8Q164.29-20.85 165.85-22.16 167.42-23.46 169.82-24.08 172.23-24.71 174.69-24.71L174.69-24.71Q177.79-24.71 179.5-23.74 181.21-22.78 181.89-21.08 182.58-19.38 182.58-17.21L182.58-17.21 182.58-3.2Q182.58-2.73 182.88-2.44 183.19-2.15 183.63-2.1L183.63-2.1 186.04-1.95ZM177.99-4.71L177.99-4.71 177.99-13.35Q174.62-12.52 172.63-11.68 170.64-10.84 169.66-10 168.69-9.16 168.38-8.29 168.08-7.42 168.08-6.49L168.08-6.49Q168.08-4.96 169.06-3.65 170.05-2.34 171.84-2.34L171.84-2.34Q172.84-2.34 173.91-2.7 174.99-3.05 175.91-3.53 176.84-4 177.41-4.36 177.99-4.71 177.99-4.71ZM213.12-12.4L213.12-12.4Q213.12-8.47 211.6-5.54 210.09-2.61 207.26-1 204.43 0.61 200.47 0.61L200.47 0.61Q199.57 0.61 198.53 0.49 197.49 0.37 196.76 0.26 196.03 0.15 196.03 0.15L196.03 0.15 196.03 7.59Q196.03 8.06 196.34 8.33 196.66 8.59 197.13 8.64L197.13 8.64 200.08 8.96 200.08 10.89 187.92 10.89 187.92 8.96 190.31 8.64Q191.36 8.57 191.36 7.59L191.36 7.59 191.36-20.56 187.92-20.56 187.92-22.19 194.07-24.1 196.03-24.1 196.03-21.61Q196.03-21.61 196.65-22.07 197.27-22.53 198.33-23.16 199.4-23.78 200.75-24.24 202.11-24.71 203.57-24.71L203.57-24.71Q206.16-24.71 208.32-23.18 210.48-21.66 211.8-18.9 213.12-16.14 213.12-12.4ZM208.11-11.69L208.11-11.69Q208.11-14.28 207.32-16.43 206.53-18.58 204.98-19.89 203.42-21.19 201.13-21.19L201.13-21.19Q199.88-21.19 198.71-20.83 197.54-20.46 196.78-20.08 196.03-19.7 196.03-19.7L196.03-19.7 196.03-2.49Q196.03-2.49 197.28-2.1 198.54-1.71 200.08-1.71L200.08-1.71Q202.84-1.71 204.61-3.13 206.38-4.54 207.25-6.82 208.11-9.11 208.11-11.69ZM239.43-1.95L239.43 0 232.04 0 231.38-2.95Q231.38-2.95 230.63-2.42 229.89-1.88 228.67-1.17 227.45-0.46 225.97 0.07 224.49 0.61 223.03 0.61L223.03 0.61Q220.32 0.61 218.42-1.2 216.53-3 216.53-6.15L216.53-6.15Q216.53-7.54 217.03-8.74 217.53-9.94 219.04-11.02 220.54-12.11 223.5-13.15 226.47-14.18 231.38-15.26L231.38-15.26 231.38-17.41Q231.38-22.34 226.71-22.34L226.71-22.34Q225.42-22.34 224.48-22.09 223.54-21.85 223.17-21.7L223.17-21.7 223.17-17.36 219.54-17.36Q218.85-17.36 218.27-17.61 217.68-17.87 217.68-18.8L217.68-18.8Q217.68-20.85 219.24-22.16 220.81-23.46 223.21-24.08 225.61-24.71 228.08-24.71L228.08-24.71Q231.18-24.71 232.89-23.74 234.6-22.78 235.28-21.08 235.97-19.38 235.97-17.21L235.97-17.21 235.97-3.2Q235.97-2.73 236.27-2.44 236.58-2.15 237.02-2.1L237.02-2.1 239.43-1.95ZM231.38-4.71L231.38-4.71 231.38-13.35Q228.01-12.52 226.02-11.68 224.03-10.84 223.05-10 222.07-9.16 221.77-8.29 221.46-7.42 221.46-6.49L221.46-6.49Q221.46-4.96 222.45-3.65 223.44-2.34 225.22-2.34L225.22-2.34Q226.23-2.34 227.3-2.7 228.37-3.05 229.3-3.53 230.23-4 230.8-4.36 231.38-4.71 231.38-4.71ZM267.6-1.95L267.6 0 256.57 0 256.57-1.95 258.67-2.1Q259.11-2.15 259.41-2.44 259.72-2.73 259.72-3.2L259.72-3.2 259.72-16.21Q259.72-18.58 258.62-19.81 257.52-21.04 254.91-21.04L254.91-21.04Q253.49-21.04 252.09-20.64 250.69-20.24 249.42-19.6L249.42-19.6 249.42-3.2Q249.42-2.17 250.47-2.1L250.47-2.1 252.57-1.95 252.57 0 241.26 0 241.26-1.95 243.7-2.1Q244.75-2.17 244.75-3.2L244.75-3.2 244.75-20.56 241.26-20.56 241.26-22.19 247.37-24.1 249.42-24.1 249.42-21.61Q251.52-22.8 253.73-23.75 255.93-24.71 257.67-24.71L257.67-24.71Q260.94-24.71 262.65-22.67 264.36-20.63 264.36-16.99L264.36-16.99 264.36-3.2Q264.36-2.73 264.66-2.44 264.97-2.15 265.41-2.1L265.41-2.1 267.6-1.95ZM326.66-2.15L326.66 0 314.01 0 314.01-2.15 316.87-2.34Q317.38-2.39 317.65-2.73 317.92-3.08 317.92-3.44L317.92-3.44 317.92-16.36 301.46-16.36 301.46-3.44Q301.46-3.08 301.72-2.73 301.97-2.39 302.51-2.34L302.51-2.34 305.37-2.15 305.37 0 292.72 0 292.72-2.15 295.31-2.34Q295.85-2.39 296.13-2.73 296.41-3.08 296.41-3.44L296.41-3.44 296.41-30.1Q296.41-30.47 296.13-30.8 295.85-31.13 295.31-31.15L295.31-31.15 292.72-31.35 292.72-33.54 305.37-33.54 305.37-31.35 302.51-31.15Q301.97-31.13 301.72-30.8 301.46-30.47 301.46-30.1L301.46-30.1 301.46-18.85 317.92-18.85 317.92-30.1Q317.92-30.47 317.65-30.8 317.38-31.13 316.87-31.15L316.87-31.15 314.01-31.35 314.01-33.54 326.66-33.54 326.66-31.35 324.07-31.15Q323.53-31.13 323.25-30.8 322.97-30.47 322.97-30.1L322.97-30.1 322.97-3.44Q322.97-3.08 323.25-2.73 323.53-2.39 324.07-2.34L324.07-2.34 326.66-2.15ZM354.27-24.1L354.27-22.14 351.65-21.85 342.06 1.54Q341.74 2.34 341.07 3.85 340.4 5.35 339.48 6.92 338.57 8.5 337.52 9.55L337.52 9.55Q336.62 10.45 335.53 10.95 334.44 11.45 333.17 11.45L333.17 11.45Q331.39 11.45 330.45 10.58 329.51 9.72 329.51 8.59L329.51 8.59Q329.51 6.93 331.12 5.59L331.12 5.59 335.81 7.74Q336.64 6.91 337.47 5.49 338.3 4.08 338.97 2.56 339.64 1.05 340.01-0.05L340.01-0.05 331.51-21.85 328.75-22.14 328.75-24.1 339.81-24.1 339.81-22.14 337.42-22Q336.62-21.92 336.62-21.19L336.62-21.19Q336.62-21 336.66-20.9L336.66-20.9 342.47-6.15 348.41-20.9Q348.48-21.04 348.48-21.22L348.48-21.22Q348.48-21.95 347.72-22L347.72-22 345.36-22.14 345.36-24.1 354.27-24.1ZM381.66-1.95L381.66 0 373.8 0 373.8-2.66Q372.09-1.34 370.16-0.37 368.23 0.61 366.06 0.61L366.06 0.61Q363.54 0.61 361.72-0.45 359.9-1.51 358.74-3.27 357.58-5.03 357.02-7.15 356.46-9.28 356.46-11.4L356.46-11.4Q356.46-14.79 357.85-17.83 359.24-20.87 362.08-22.79 364.91-24.71 369.21-24.71L369.21-24.71Q370.4-24.71 371.81-24.48 373.21-24.24 373.8-24.1L373.8-24.1 373.8-33.25 370.01-33.25 370.01-34.91 376.46-36.84 378.46-36.84 378.46-3.2Q378.46-2.17 379.51-2.1L379.51-2.1 381.66-1.95ZM373.8-4.54L373.8-4.54 373.8-21.56Q373.16-21.78 371.9-22.03 370.65-22.29 369.55-22.29L369.55-22.29Q365.84-22.29 363.61-19.54 361.39-16.8 361.39-12.26L361.39-12.26Q361.39-8.18 363.3-5.49 365.2-2.81 368.64-2.81L368.64-2.81Q370.16-2.81 371.49-3.38 372.82-3.96 373.8-4.54ZM401.99-23.95L401.99-18.99 400.04-18.99Q399.57-19.56 398.93-19.96 398.28-20.36 397.35-20.36L397.35-20.36Q396.16-20.36 394.9-19.53 393.64-18.7 392.35-17.26L392.35-17.26 392.35-3.2Q392.35-2.15 393.4-2.1L393.4-2.1 396.69-1.95 396.69 0 384.19 0 384.19-1.9 386.66-2.1Q387.1-2.15 387.4-2.44 387.71-2.73 387.71-3.2L387.71-3.2 387.71-20.56 384.1-20.56 384.1-22.19 390.3-24.1 392.35-24.1 392.35-19.65Q393.08-20.46 394.18-21.66 395.28-22.85 396.52-23.78 397.77-24.71 398.94-24.71L398.94-24.71Q399.72-24.71 400.62-24.46 401.53-24.22 401.99-23.95L401.99-23.95ZM427.99-12.01L427.99-12.01Q427.99-8.47 426.53-5.6 425.06-2.73 422.39-1.06 419.71 0.61 416.05 0.61L416.05 0.61Q412.41 0.61 409.75-1.05 407.09-2.71 405.65-5.57 404.21-8.42 404.21-12.01L404.21-12.01Q404.21-15.58 405.66-18.46 407.12-21.34 409.81-23.02 412.51-24.71 416.2-24.71L416.2-24.71Q419.93-24.71 422.57-23 425.21-21.29 426.6-18.41 427.99-15.53 427.99-12.01ZM422.79-12.06L422.79-12.06Q422.79-14.79 422.07-17.16 421.35-19.53 419.87-21 418.4-22.46 416.15-22.46L416.15-22.46Q413.83-22.46 412.35-21 410.88-19.53 410.17-17.16 409.46-14.79 409.46-12.06L409.46-12.06Q409.46-9.35 410.18-6.97 410.9-4.59 412.38-3.13 413.85-1.66 416.1-1.66L416.1-1.66Q418.4-1.66 419.87-3.13 421.35-4.59 422.07-6.96 422.79-9.33 422.79-12.06ZM455.94-12.4L455.94-12.4Q455.94-8.47 454.43-5.54 452.91-2.61 450.08-1 447.25 0.61 443.29 0.61L443.29 0.61Q442.39 0.61 441.35 0.49 440.32 0.37 439.58 0.26 438.85 0.15 438.85 0.15L438.85 0.15 438.85 7.59Q438.85 8.06 439.17 8.33 439.49 8.59 439.95 8.64L439.95 8.64 442.9 8.96 442.9 10.89 430.75 10.89 430.75 8.96 433.14 8.64Q434.19 8.57 434.19 7.59L434.19 7.59 434.19-20.56 430.75-20.56 430.75-22.19 436.9-24.1 438.85-24.1 438.85-21.61Q438.85-21.61 439.47-22.07 440.1-22.53 441.16-23.16 442.22-23.78 443.58-24.24 444.93-24.71 446.4-24.71L446.4-24.71Q448.98-24.71 451.14-23.18 453.3-21.66 454.62-18.9 455.94-16.14 455.94-12.4ZM450.94-11.69L450.94-11.69Q450.94-14.28 450.14-16.43 449.35-18.58 447.8-19.89 446.25-21.19 443.95-21.19L443.95-21.19Q442.71-21.19 441.54-20.83 440.37-20.46 439.61-20.08 438.85-19.7 438.85-19.7L438.85-19.7 438.85-2.49Q438.85-2.49 440.11-2.1 441.37-1.71 442.9-1.71L442.9-1.71Q445.66-1.71 447.43-3.13 449.2-4.54 450.07-6.82 450.94-9.11 450.94-11.69ZM483.14-12.01L483.14-12.01Q483.14-8.47 481.67-5.6 480.21-2.73 477.53-1.06 474.86 0.61 471.2 0.61L471.2 0.61Q467.56 0.61 464.9-1.05 462.24-2.71 460.8-5.57 459.36-8.42 459.36-12.01L459.36-12.01Q459.36-15.58 460.81-18.46 462.26-21.34 464.96-23.02 467.66-24.71 471.34-24.71L471.34-24.71Q475.08-24.71 477.72-23 480.35-21.29 481.74-18.41 483.14-15.53 483.14-12.01ZM477.94-12.06L477.94-12.06Q477.94-14.79 477.22-17.16 476.5-19.53 475.02-21 473.54-22.46 471.3-22.46L471.3-22.46Q468.98-22.46 467.5-21 466.02-19.53 465.31-17.16 464.61-14.79 464.61-12.06L464.61-12.06Q464.61-9.35 465.33-6.97 466.05-4.59 467.52-3.13 469-1.66 471.25-1.66L471.25-1.66Q473.54-1.66 475.02-3.13 476.5-4.59 477.22-6.96 477.94-9.33 477.94-12.06ZM523.49-24.1L523.49-22.14 520.95-21.85 514.09 0 510.55 0 504.64-18.7 498.05 0 494.49 0 488.09-21.85 485.33-22.14 485.33-24.1 496.29-24.1 496.29-22.14 493.95-22Q493.17-21.92 493.17-21.17L493.17-21.17Q493.17-21 493.19-20.9L493.19-20.9 497.34-5.35 503.79-24.1 507.35-24.1 513.14-5.35 517.75-20.9Q517.78-20.97 517.78-21.14L517.78-21.14Q517.78-21.46 517.58-21.72 517.39-21.97 517.04-22L517.04-22 514.75-22.14 514.75-24.1 523.49-24.1ZM546.8-5.54L546.8-2.49Q544.7-1.2 542.27-0.29 539.85 0.61 537.31 0.61L537.31 0.61Q534.28 0.61 531.63-0.74 528.98-2.1 527.35-4.86 525.71-7.62 525.71-11.79L525.71-11.79Q525.71-15.7 527.22-18.6 528.74-21.51 531.4-23.11 534.06-24.71 537.45-24.71L537.45-24.71Q542.12-24.71 544.46-21.81 546.8-18.92 546.8-14.45L546.8-14.45Q546.8-14.21 546.8-13.81 546.8-13.4 546.75-13.06L546.75-13.06 530.54-13.06Q530.54-11.16 530.95-9.27 531.35-7.37 532.3-5.83 533.25-4.3 534.86-3.37 536.48-2.44 538.89-2.44L538.89-2.44Q541.04-2.44 543.08-3.43 545.12-4.42 546.8-5.54L546.8-5.54ZM530.81-15.31L541.8-15.31 541.8-16.41Q541.8-18.87 540.61-20.56 539.43-22.24 536.94-22.24L536.94-22.24Q534.47-22.24 532.74-20.39 531.01-18.53 530.81-15.31L530.81-15.31ZM567.55-23.95L567.55-18.99 565.6-18.99Q565.14-19.56 564.49-19.96 563.84-20.36 562.91-20.36L562.91-20.36Q561.72-20.36 560.46-19.53 559.2-18.7 557.91-17.26L557.91-17.26 557.91-3.2Q557.91-2.15 558.96-2.1L558.96-2.1 562.25-1.95 562.25 0 549.75 0 549.75-1.9 552.22-2.1Q552.66-2.15 552.97-2.44 553.27-2.73 553.27-3.2L553.27-3.2 553.27-20.56 549.66-20.56 549.66-22.19 555.86-24.1 557.91-24.1 557.91-19.65Q558.64-20.46 559.74-21.66 560.84-22.85 562.08-23.78 563.33-24.71 564.5-24.71L564.5-24.71Q565.28-24.71 566.19-24.46 567.09-24.22 567.55-23.95L567.55-23.95Z" opacity="1" transform="matrix(1,0,0,1,0,0)" fill="#000000" class="slogan-text-1" data-fill-palette-color="secondary" id="text-1"></path></svg></g></svg></g></svg></g></svg></g></svg></g></svg></g></svg></g><g><path d="M208.616 0c33.003 0 62.984 12.935 85.152 34.011h-7.5c-20.802-18.046-47.951-28.967-77.652-28.967-29.7 0-56.85 10.921-77.652 28.967l-7.5 0c22.168-21.076 52.149-34.011 85.152-34.011zM332.216 123.6c0 25.982-8.017 50.092-21.712 69.991v-9.338c10.586-17.745 16.668-38.489 16.668-60.653 0-22.164-6.082-42.908-16.668-60.653l0-9.338c13.695 19.899 21.712 44.008 21.712 69.991zM208.616 247.2c-33.003 0-62.984-12.935-85.152-34.011h7.5c20.802 18.046 47.951 28.967 77.652 28.967 29.7 0 56.85-10.921 77.652-28.967h7.5c-22.168 21.076-52.149 34.011-85.152 34.011z" fill="#000000" stroke="transparent" data-fill-palette-color="tertiary"></path></g></svg></g><defs></defs></svg><rect width="395.52" height="247.2" fill="none" stroke="none" visibility="hidden"></rect></g></svg></g></svg>